<?xml version="1.0" encoding="utf-8"?>
<!-- Uploaded to: SVG Repo, www.svgrepo.com, Generator: SVG Repo Mixer Tools -->
<svg width="800px" height="800px" viewBox="0 0 1024 1024" class="icon"  version="1.1" xmlns="http://www.w3.org/2000/svg"><path d="M798.970311 417.109333L601.884444 491.565511l-98.986666 37.398756-302.876445-111.854934 33.4848-142.586311a67.584 67.584 0 0 1 65.206045-52.269511h401.567289a67.640889 67.640889 0 0 1 65.171911 52.269511l33.518933 142.586311z" fill="#E6E6E6" /><path d="M798.970311 417.109333L601.884444 491.565511l-136.419555-24.132267 94.708622-245.179733h140.105956a67.618133 67.618133 0 0 1 65.160533 52.269511l33.530311 142.586311z" fill="#F2F2F2" /><path d="M880.64 473.372444v223.084089H125.155556V473.372444c0-31.072711 25.076622-56.263111 56.0128-56.263111H824.6272c30.9248 0 56.0128 25.201778 56.0128 56.263111z" fill="#FFCA6C" /><path d="M231.901867 417.109333h-50.733511c-30.936178 0-56.0128 25.1904-56.0128 56.274489v223.084089h50.733511V473.372444c0-31.061333 25.076622-56.263111 56.0128-56.263111z" fill="#E5B05C" /><path d="M734.299022 750.421333h129.319822v110.626134H734.299022zM142.176711 750.421333h129.319822v110.626134H142.176711z" fill="#666666" /><path d="M734.299022 750.421333h129.319822v49.015467H734.299022zM142.176711 750.421333h129.319822v49.015467H142.176711z" fill="#4D4D4D" /><path d="M924.888178 705.046756v8.692622a36.602311 36.602311 0 0 1-36.511289 36.681955H117.418667a36.579556 36.579556 0 0 1-36.499911-36.681955v-8.692622a36.590933 36.590933 0 0 1 36.499911-36.670578H888.376889a36.590933 36.590933 0 0 1 36.511289 36.670578z" fill="#CCCCCC" /><path d="M176.412444 713.728v-8.692622a36.590933 36.590933 0 0 1 36.511289-36.670578H117.418667a36.579556 36.579556 0 0 0-36.499911 36.670578v8.692622a36.590933 36.590933 0 0 0 36.499911 36.681956h95.493689a36.568178 36.568178 0 0 1-36.499912-36.681956z" fill="#B3B3B3" /><path d="M254.475378 485.4784c31.914667 0 57.844622 26.0096 57.844622 58.117689 0 32.085333-25.929956 58.106311-57.844622 58.106311-31.960178 0-57.856-26.020978-57.856-58.106311 0-32.096711 25.895822-58.117689 57.856-58.117689zM751.331556 485.4784c31.914667 0 57.844622 26.0096 57.844622 58.117689 0 32.085333-25.929956 58.106311-57.844622 58.106311-31.960178 0-57.867378-26.020978-57.867378-58.106311 0-32.096711 25.918578-58.117689 57.867378-58.117689z" fill="#E6E6E6" /><path d="M700.279467 222.253511l-23.6544-88.871822H322.332444l-23.620266 88.871822h200.783644z" fill="#CCCCCC" /><path d="M279.028622 282.271289h440.945778c20.093156 0.159289 38.6048 7.702756 52.0192 20.081778l-6.530844-27.818667a67.640889 67.640889 0 0 0-65.183289-52.269511H298.723556a67.584 67.584 0 0 0-65.206045 52.269511l-6.519467 27.784533c13.425778-12.379022 31.937422-19.911111 52.030578-20.047644z" fill="#FFCA6C" /><path d="M630.283378 505.0368H375.5008a19.000889 19.000889 0 0 0-18.944 19.023644v144.327112H649.216V524.060444a18.955378 18.955378 0 0 0-18.932622-19.023644z" fill="#666666" /><path d="M254.475378 616.698311c40.129422 0 72.772267-32.790756 72.772266-73.102222 0-40.311467-32.642844-73.102222-72.772266-73.102222-40.129422 0-72.772267 32.790756-72.772267 73.102222-0.011378 40.311467 32.642844 73.102222 72.772267 73.102222z m0-116.224c23.665778 0 42.928356 19.3536 42.928355 43.133156s-19.262578 43.121778-42.928355 43.121777c-23.677156 0-42.928356-19.342222-42.928356-43.121777s19.2512-43.133156 42.928356-43.133156zM824.103822 543.596089c0-40.311467-32.654222-73.102222-72.772266-73.102222s-72.772267 32.790756-72.772267 73.102222c0 40.311467 32.642844 73.102222 72.772267 73.102222s72.772267-32.790756 72.772266-73.102222z m-115.700622 0c0-23.779556 19.239822-43.133156 42.916978-43.133156s42.928356 19.3536 42.928355 43.133156-19.2512 43.121778-42.928355 43.121778-42.916978-19.342222-42.916978-43.121778z" fill="" /><path d="M895.567644 653.903644V473.372444c0-39.287467-31.835022-71.259022-70.940444-71.259022H810.780444l-24.223288-103.025778a6.951822 6.951822 0 0 0-0.113778-0.466488l-6.462578-27.5456a82.409244 82.409244 0 0 0-68.004978-62.884978l-20.935111-78.688711a14.9504 14.9504 0 0 0-14.427022-11.116089H322.332444c-6.7584 0-12.674844 4.562489-14.415644 11.127466l-20.900978 78.677334a82.375111 82.375111 0 0 0-68.027733 62.896355l-30.776889 131.037867h-7.042844c-39.1168 0-70.940444 31.971556-70.940445 71.259022v76.379022c0 8.283022 6.678756 14.984533 14.927645 14.984534s14.927644-6.712889 14.927644-14.984534v-76.379022c0-22.755556 18.432-41.278578 41.085156-41.278578h643.458844c22.664533 0 41.096533 18.511644 41.096533 41.278578v179.996445H664.155022V524.060444a33.974044 33.974044 0 0 0-33.871644-34.008177H375.5008a33.974044 33.974044 0 0 0-33.860267 34.008177v129.319823h-76.959289c-8.248889 0-14.927644 6.712889-14.927644 14.995911 0 8.271644 6.678756 14.973156 14.927644 14.973155H888.376889c11.889778 0 21.572267 9.728 21.572267 21.686045v8.692622a21.651911 21.651911 0 0 1-21.572267 21.686044H117.418667a21.651911 21.651911 0 0 1-21.583645-21.686044v-8.692622c0-11.958044 9.693867-21.686044 21.583645-21.686045h72.385422c8.248889 0 14.927644-6.712889 14.927644-14.973155 0-8.2944-6.678756-14.995911-14.927644-14.995911h-49.732267v-50.972445c0-8.271644-6.678756-14.973156-14.927644-14.973155s-14.927644 6.712889-14.927645 14.973155v51.484445A51.666489 51.666489 0 0 0 65.991111 705.046756v8.692622c0 28.489956 23.074133 51.666489 51.438933 51.666489h9.819023v95.6416c0 8.271644 6.678756 14.973156 14.927644 14.973155h129.319822c8.237511 0 14.927644-6.712889 14.927645-14.973155v-95.6416h432.981333v95.6416c0 8.271644 6.678756 14.973156 14.927645 14.973155h129.308444c8.248889 0 14.927644-6.712889 14.927644-14.973155v-95.6416h9.8304c28.353422 0 51.427556-23.176533 51.427556-51.666489v-8.692622a51.689244 51.689244 0 0 0-44.259556-51.143112zM333.789867 148.366222h331.377777l15.678578 58.902756H318.134044l15.655823-58.902756z m-114.915556 253.758578l21.504-91.556978c10.717867-8.4992 24.314311-13.2096 38.661689-13.312h344.610133c8.248889 0 14.927644-6.712889 14.927645-14.984533s-6.690133-14.984533-14.927645-14.984533H278.9376a95.118222 95.118222 0 0 0-29.092978 4.733155 52.440178 52.440178 0 0 1 48.981334-34.759111h401.339733a52.508444 52.508444 0 0 1 48.9472 34.770489 95.607467 95.607467 0 0 0-29.138489-4.744533H676.067556c-8.248889 0-14.927644 6.712889-14.927645 14.984533s6.690133 14.984533 14.927645 14.984533h43.793066c14.4384 0.113778 28.023467 4.824178 38.729956 13.312l21.526755 91.556978H218.874311zM371.484444 653.380267V524.060444c0-2.218667 1.809067-4.027733 4.016356-4.027733h254.793956c2.218667 0 4.027733 1.809067 4.027733 4.027733v129.319823H371.484444z m-114.915555 192.659911h-99.475911v-80.645689h99.475911v80.645689z m592.145067 0H749.226667v-80.645689h99.487289v80.645689z" fill="" /></svg>